<mxfile host="65bd71144e">
    <diagram id="nfPImFV3LTCRzZ3-pVpz" name="Page-1">
        <mxGraphModel dx="3015" dy="1528" grid="1" gridSize="10" guides="1" tooltips="1" connect="1" arrows="1" fold="1" page="0" pageScale="1" pageWidth="850" pageHeight="1100" math="0" shadow="0">
            <root>
                <mxCell id="0"/>
                <mxCell id="1" parent="0"/>
                <mxCell id="63" style="edgeStyle=none;html=1;fontFamily=Helvetica;fontSize=17;exitX=0;exitY=0.25;exitDx=0;exitDy=0;entryX=0.62;entryY=0.015;entryDx=0;entryDy=0;entryPerimeter=0;" edge="1" parent="1" source="2" target="9">
                    <mxGeometry relative="1" as="geometry">
                        <mxPoint x="-630" y="280" as="targetPoint"/>
                        <Array as="points">
                            <mxPoint x="-580" y="180"/>
                        </Array>
                    </mxGeometry>
                </mxCell>
                <mxCell id="80" style="edgeStyle=none;html=1;entryX=0.5;entryY=0;entryDx=0;entryDy=0;fontFamily=Helvetica;fontSize=17;startArrow=none;startFill=0;endArrow=classic;endFill=1;" edge="1" parent="1" source="2" target="7">
                    <mxGeometry relative="1" as="geometry">
                        <mxPoint x="-220" y="388.75" as="targetPoint"/>
                    </mxGeometry>
                </mxCell>
                <mxCell id="95" style="edgeStyle=none;html=1;entryX=0.746;entryY=0.066;entryDx=0;entryDy=0;fontFamily=Helvetica;fontSize=17;startArrow=none;startFill=0;endArrow=classic;endFill=1;exitX=0.25;exitY=1;exitDx=0;exitDy=0;entryPerimeter=0;" edge="1" parent="1" source="2" target="11">
                    <mxGeometry relative="1" as="geometry">
                        <Array as="points">
                            <mxPoint x="-260" y="320"/>
                            <mxPoint x="-370" y="320"/>
                        </Array>
                    </mxGeometry>
                </mxCell>
                <mxCell id="2" value="&lt;font style=&quot;font-size: 20px;&quot;&gt;USER&lt;/font&gt;" style="whiteSpace=wrap;html=1;" vertex="1" parent="1">
                    <mxGeometry x="-300" y="160" width="160" height="80" as="geometry"/>
                </mxCell>
                <mxCell id="71" style="edgeStyle=none;html=1;fontFamily=Helvetica;fontSize=17;startArrow=classic;startFill=1;endArrow=classic;endFill=1;entryX=0.379;entryY=0.015;entryDx=0;entryDy=0;entryPerimeter=0;" edge="1" parent="1" target="9">
                    <mxGeometry relative="1" as="geometry">
                        <mxPoint x="-870" y="180" as="sourcePoint"/>
                        <mxPoint x="-620" y="310" as="targetPoint"/>
                        <Array as="points">
                            <mxPoint x="-620" y="180"/>
                        </Array>
                    </mxGeometry>
                </mxCell>
                <mxCell id="75" style="edgeStyle=none;html=1;entryX=0;entryY=0;entryDx=0;entryDy=0;fontFamily=Helvetica;fontSize=17;startArrow=classic;startFill=1;endArrow=classic;endFill=1;exitX=1;exitY=0.75;exitDx=0;exitDy=0;" edge="1" parent="1" source="4" target="9">
                    <mxGeometry relative="1" as="geometry">
                        <Array as="points">
                            <mxPoint x="-660" y="220"/>
                        </Array>
                    </mxGeometry>
                </mxCell>
                <mxCell id="103" style="edgeStyle=none;html=1;entryX=0.258;entryY=0.056;entryDx=0;entryDy=0;fontFamily=Helvetica;fontSize=17;startArrow=none;startFill=0;endArrow=classic;endFill=1;exitX=0.25;exitY=1;exitDx=0;exitDy=0;entryPerimeter=0;" edge="1" parent="1" source="4" target="12">
                    <mxGeometry relative="1" as="geometry"/>
                </mxCell>
                <mxCell id="4" value="ADMIN" style="whiteSpace=wrap;html=1;fontSize=20;" vertex="1" parent="1">
                    <mxGeometry x="-1020" y="160" width="160" height="80" as="geometry"/>
                </mxCell>
                <mxCell id="90" style="edgeStyle=none;html=1;entryX=1;entryY=0.5;entryDx=0;entryDy=0;fontFamily=Helvetica;fontSize=17;startArrow=none;startFill=0;endArrow=classic;endFill=1;" edge="1" parent="1" source="6" target="82">
                    <mxGeometry relative="1" as="geometry">
                        <Array as="points">
                            <mxPoint x="-100" y="830"/>
                        </Array>
                    </mxGeometry>
                </mxCell>
                <mxCell id="6" value="&lt;font style=&quot;font-size: 17px;&quot;&gt;POLLINATION AI&lt;/font&gt;" style="whiteSpace=wrap;html=1;fontSize=20;" vertex="1" parent="1">
                    <mxGeometry x="-180" y="560" width="160" height="80" as="geometry"/>
                </mxCell>
                <mxCell id="83" style="edgeStyle=none;html=1;entryX=0.5;entryY=0;entryDx=0;entryDy=0;fontFamily=Helvetica;fontSize=17;startArrow=none;startFill=0;endArrow=classic;endFill=1;exitX=1;exitY=0.5;exitDx=0;exitDy=0;" edge="1" parent="1" source="7" target="6">
                    <mxGeometry relative="1" as="geometry">
                        <Array as="points">
                            <mxPoint x="-100" y="430"/>
                        </Array>
                    </mxGeometry>
                </mxCell>
                <mxCell id="86" style="edgeStyle=none;html=1;fontFamily=Helvetica;fontSize=17;startArrow=none;startFill=0;endArrow=classic;endFill=1;" edge="1" parent="1" source="7" target="82">
                    <mxGeometry relative="1" as="geometry"/>
                </mxCell>
                <mxCell id="7" value="&lt;font style=&quot;font-size: 20px;&quot;&gt;GEMINI AI&lt;/font&gt;" style="whiteSpace=wrap;html=1;fontSize=17;" vertex="1" parent="1">
                    <mxGeometry x="-300" y="390" width="160" height="80" as="geometry"/>
                </mxCell>
                <mxCell id="65" style="edgeStyle=none;html=1;entryX=0;entryY=0.75;entryDx=0;entryDy=0;fontFamily=Helvetica;fontSize=17;exitX=1;exitY=0;exitDx=0;exitDy=0;endArrow=none;endFill=0;startArrow=classic;startFill=1;" edge="1" parent="1" source="9" target="2">
                    <mxGeometry relative="1" as="geometry">
                        <Array as="points">
                            <mxPoint x="-543" y="220"/>
                        </Array>
                    </mxGeometry>
                </mxCell>
                <mxCell id="77" style="edgeStyle=none;html=1;exitX=0.746;exitY=0.947;exitDx=0;exitDy=0;entryX=0.785;entryY=-0.038;entryDx=0;entryDy=0;entryPerimeter=0;fontFamily=Helvetica;fontSize=17;startArrow=classic;startFill=1;endArrow=classic;endFill=1;exitPerimeter=0;" edge="1" parent="1" source="9" target="67">
                    <mxGeometry relative="1" as="geometry"/>
                </mxCell>
                <mxCell id="9" value="&lt;font style=&quot;font-size: 15px;&quot;&gt;USER&lt;br&gt;AUTHENTICATION&lt;/font&gt;" style="ellipse;whiteSpace=wrap;html=1;fontSize=20;" vertex="1" parent="1">
                    <mxGeometry x="-680" y="310" width="160" height="160" as="geometry"/>
                </mxCell>
                <mxCell id="97" style="edgeStyle=none;html=1;entryX=0;entryY=1;entryDx=0;entryDy=0;fontFamily=Helvetica;fontSize=17;startArrow=none;startFill=0;endArrow=classic;endFill=1;exitX=0.312;exitY=0.041;exitDx=0;exitDy=0;exitPerimeter=0;" edge="1" parent="1" source="11" target="2">
                    <mxGeometry relative="1" as="geometry">
                        <Array as="points">
                            <mxPoint x="-440" y="290"/>
                            <mxPoint x="-300" y="290"/>
                        </Array>
                    </mxGeometry>
                </mxCell>
                <mxCell id="99" style="edgeStyle=none;html=1;entryX=0.795;entryY=0.002;entryDx=0;entryDy=0;entryPerimeter=0;fontFamily=Helvetica;fontSize=17;startArrow=none;startFill=0;endArrow=classic;endFill=1;exitX=0.75;exitY=0.938;exitDx=0;exitDy=0;exitPerimeter=0;" edge="1" parent="1" source="11" target="92">
                    <mxGeometry relative="1" as="geometry">
                        <mxPoint x="-360" y="580" as="sourcePoint"/>
                        <Array as="points">
                            <mxPoint x="-370" y="740"/>
                            <mxPoint x="-560" y="740"/>
                        </Array>
                    </mxGeometry>
                </mxCell>
                <mxCell id="11" value="RECIPE&lt;br&gt;SHARING" style="ellipse;whiteSpace=wrap;html=1;fontSize=20;" vertex="1" parent="1">
                    <mxGeometry x="-490" y="440" width="160" height="160" as="geometry"/>
                </mxCell>
                <mxCell id="106" style="edgeStyle=none;html=1;fontFamily=Helvetica;fontSize=17;startArrow=none;startFill=0;endArrow=classic;endFill=1;exitX=0.75;exitY=0.938;exitDx=0;exitDy=0;exitPerimeter=0;" edge="1" parent="1" source="12">
                    <mxGeometry relative="1" as="geometry">
                        <mxPoint x="-670" y="821.3913361922554" as="targetPoint"/>
                        <Array as="points">
                            <mxPoint x="-900" y="821"/>
                        </Array>
                    </mxGeometry>
                </mxCell>
                <mxCell id="108" style="edgeStyle=none;html=1;entryX=0.75;entryY=1;entryDx=0;entryDy=0;fontFamily=Helvetica;fontSize=17;startArrow=none;startFill=0;endArrow=classic;endFill=1;exitX=0.75;exitY=0.059;exitDx=0;exitDy=0;exitPerimeter=0;" edge="1" parent="1" source="12" target="4">
                    <mxGeometry relative="1" as="geometry"/>
                </mxCell>
                <mxCell id="12" value="&lt;font style=&quot;font-size: 18px;&quot;&gt;RECIPE&lt;br&gt;MANAGEMENT&lt;/font&gt;" style="ellipse;whiteSpace=wrap;html=1;fontSize=20;" vertex="1" parent="1">
                    <mxGeometry x="-1020" y="440" width="160" height="160" as="geometry"/>
                </mxCell>
                <mxCell id="111" style="edgeStyle=none;html=1;entryX=1;entryY=1;entryDx=0;entryDy=0;fontFamily=Helvetica;fontSize=17;startArrow=classic;startFill=1;endArrow=none;endFill=0;" edge="1" parent="1" source="61" target="4">
                    <mxGeometry relative="1" as="geometry">
                        <Array as="points">
                            <mxPoint x="-770" y="280"/>
                            <mxPoint x="-860" y="280"/>
                        </Array>
                    </mxGeometry>
                </mxCell>
                <mxCell id="113" style="edgeStyle=none;html=1;fontFamily=Helvetica;fontSize=17;startArrow=classic;startFill=1;endArrow=none;endFill=0;exitX=0.312;exitY=0.98;exitDx=0;exitDy=0;exitPerimeter=0;" edge="1" parent="1" source="61">
                    <mxGeometry relative="1" as="geometry">
                        <mxPoint x="-670" y="660" as="targetPoint"/>
                        <Array as="points">
                            <mxPoint x="-800" y="660"/>
                        </Array>
                    </mxGeometry>
                </mxCell>
                <mxCell id="116" style="edgeStyle=none;html=1;fontFamily=Helvetica;fontSize=17;startArrow=none;startFill=0;endArrow=classic;endFill=1;exitX=0.627;exitY=0.985;exitDx=0;exitDy=0;exitPerimeter=0;entryX=-0.019;entryY=0.4;entryDx=0;entryDy=0;entryPerimeter=0;" edge="1" parent="1" source="61" target="67">
                    <mxGeometry relative="1" as="geometry">
                        <mxPoint x="-670" y="620" as="targetPoint"/>
                        <Array as="points">
                            <mxPoint x="-750" y="640"/>
                        </Array>
                    </mxGeometry>
                </mxCell>
                <mxCell id="61" value="&lt;span style=&quot;font-size: 17px;&quot;&gt;USER&lt;br&gt;MANAGEMENT&lt;br&gt;&lt;/span&gt;" style="ellipse;whiteSpace=wrap;html=1;fontSize=20;" vertex="1" parent="1">
                    <mxGeometry x="-850" y="390" width="160" height="160" as="geometry"/>
                </mxCell>
                <mxCell id="64" value="Login / Signup" style="text;strokeColor=none;align=center;fillColor=none;html=1;verticalAlign=middle;whiteSpace=wrap;rounded=0;fontFamily=Helvetica;fontSize=17;" vertex="1" parent="1">
                    <mxGeometry x="-540" y="150" width="130" height="30" as="geometry"/>
                </mxCell>
                <mxCell id="66" value="Logout" style="text;strokeColor=none;align=center;fillColor=none;html=1;verticalAlign=middle;whiteSpace=wrap;rounded=0;fontFamily=Helvetica;fontSize=17;" vertex="1" parent="1">
                    <mxGeometry x="-460" y="220" width="60" height="30" as="geometry"/>
                </mxCell>
                <mxCell id="67" value="&lt;span style=&quot;font-size: 20px;&quot;&gt;USERS&lt;/span&gt;" style="html=1;rounded=0;shadow=0;comic=0;labelBackgroundColor=none;strokeWidth=2;fontFamily=Verdana;fontSize=12;align=center;shape=mxgraph.ios7ui.horLines;" vertex="1" parent="1">
                    <mxGeometry x="-667.5" y="620" width="135" height="50" as="geometry"/>
                </mxCell>
                <mxCell id="70" value="User Data" style="text;strokeColor=none;align=center;fillColor=none;html=1;verticalAlign=middle;whiteSpace=wrap;rounded=0;fontFamily=Helvetica;fontSize=17;rotation=90;" vertex="1" parent="1">
                    <mxGeometry x="-590" y="520" width="90" height="30" as="geometry"/>
                </mxCell>
                <mxCell id="74" value="Login" style="text;strokeColor=none;align=center;fillColor=none;html=1;verticalAlign=middle;whiteSpace=wrap;rounded=0;fontFamily=Helvetica;fontSize=17;" vertex="1" parent="1">
                    <mxGeometry x="-810" y="150" width="130" height="30" as="geometry"/>
                </mxCell>
                <mxCell id="76" value="Logout" style="text;strokeColor=none;align=center;fillColor=none;html=1;verticalAlign=middle;whiteSpace=wrap;rounded=0;fontFamily=Helvetica;fontSize=17;" vertex="1" parent="1">
                    <mxGeometry x="-790" y="220" width="60" height="30" as="geometry"/>
                </mxCell>
                <mxCell id="78" style="edgeStyle=none;html=1;exitX=0.25;exitY=0.938;exitDx=0;exitDy=0;entryX=0.195;entryY=-0.055;entryDx=0;entryDy=0;entryPerimeter=0;fontFamily=Helvetica;fontSize=17;startArrow=classic;startFill=1;endArrow=classic;endFill=1;exitPerimeter=0;" edge="1" parent="1" source="9" target="67">
                    <mxGeometry relative="1" as="geometry">
                        <mxPoint x="-550.6400000000001" y="471.52" as="sourcePoint"/>
                        <mxPoint x="-551.525" y="608.1" as="targetPoint"/>
                    </mxGeometry>
                </mxCell>
                <mxCell id="79" value="Admin Data" style="text;strokeColor=none;align=center;fillColor=none;html=1;verticalAlign=middle;whiteSpace=wrap;rounded=0;fontFamily=Helvetica;fontSize=17;rotation=90;" vertex="1" parent="1">
                    <mxGeometry x="-668.75" y="518.75" width="92.5" height="30" as="geometry"/>
                </mxCell>
                <mxCell id="81" value="Recipe Details" style="text;strokeColor=none;align=center;fillColor=none;html=1;verticalAlign=middle;whiteSpace=wrap;rounded=0;fontFamily=Helvetica;fontSize=17;rotation=90;" vertex="1" parent="1">
                    <mxGeometry x="-270" y="300" width="130" height="30" as="geometry"/>
                </mxCell>
                <mxCell id="93" style="edgeStyle=none;html=1;fontFamily=Helvetica;fontSize=17;startArrow=none;startFill=0;endArrow=classic;endFill=1;" edge="1" parent="1" source="82" target="92">
                    <mxGeometry relative="1" as="geometry">
                        <mxPoint x="-530" y="830" as="targetPoint"/>
                        <Array as="points"/>
                    </mxGeometry>
                </mxCell>
                <mxCell id="82" value="&lt;font style=&quot;font-size: 18px;&quot;&gt;RECIPE&lt;br&gt;GENERATION&lt;/font&gt;" style="ellipse;whiteSpace=wrap;html=1;fontSize=20;" vertex="1" parent="1">
                    <mxGeometry x="-300" y="750" width="160" height="160" as="geometry"/>
                </mxCell>
                <mxCell id="85" value="Recipe Name" style="text;strokeColor=none;align=center;fillColor=none;html=1;verticalAlign=middle;whiteSpace=wrap;rounded=0;fontFamily=Helvetica;fontSize=17;rotation=90;" vertex="1" parent="1">
                    <mxGeometry x="-140" y="480" width="110" height="30" as="geometry"/>
                </mxCell>
                <mxCell id="87" value="Recipe Data" style="text;strokeColor=none;align=center;fillColor=none;html=1;verticalAlign=middle;whiteSpace=wrap;rounded=0;fontFamily=Helvetica;fontSize=17;rotation=-90;" vertex="1" parent="1">
                    <mxGeometry x="-300" y="580" width="120" height="30" as="geometry"/>
                </mxCell>
                <mxCell id="91" value="Recipe Image" style="text;strokeColor=none;align=center;fillColor=none;html=1;verticalAlign=middle;whiteSpace=wrap;rounded=0;fontFamily=Helvetica;fontSize=17;rotation=90;" vertex="1" parent="1">
                    <mxGeometry x="-140" y="690" width="110" height="30" as="geometry"/>
                </mxCell>
                <mxCell id="100" style="edgeStyle=none;html=1;entryX=0.317;entryY=0.964;entryDx=0;entryDy=0;entryPerimeter=0;fontFamily=Helvetica;fontSize=17;startArrow=none;startFill=0;endArrow=classic;endFill=1;exitX=0.199;exitY=0.021;exitDx=0;exitDy=0;exitPerimeter=0;" edge="1" parent="1" source="92" target="11">
                    <mxGeometry relative="1" as="geometry">
                        <Array as="points">
                            <mxPoint x="-640" y="680"/>
                            <mxPoint x="-439" y="680"/>
                        </Array>
                    </mxGeometry>
                </mxCell>
                <mxCell id="104" style="edgeStyle=none;html=1;entryX=0.24;entryY=0.94;entryDx=0;entryDy=0;entryPerimeter=0;fontFamily=Helvetica;fontSize=17;startArrow=none;startFill=0;endArrow=classic;endFill=1;" edge="1" parent="1" target="12">
                    <mxGeometry relative="1" as="geometry">
                        <mxPoint x="-670" y="840" as="sourcePoint"/>
                        <Array as="points">
                            <mxPoint x="-980" y="840"/>
                        </Array>
                    </mxGeometry>
                </mxCell>
                <mxCell id="92" value="&lt;span style=&quot;font-size: 20px;&quot;&gt;RECIPES&lt;/span&gt;" style="html=1;rounded=0;shadow=0;comic=0;labelBackgroundColor=none;strokeWidth=2;fontFamily=Verdana;fontSize=12;align=center;shape=mxgraph.ios7ui.horLines;" vertex="1" parent="1">
                    <mxGeometry x="-667.5" y="805" width="135" height="50" as="geometry"/>
                </mxCell>
                <mxCell id="94" value="Store Recipe" style="text;strokeColor=none;align=center;fillColor=none;html=1;verticalAlign=middle;whiteSpace=wrap;rounded=0;fontFamily=Helvetica;fontSize=17;" vertex="1" parent="1">
                    <mxGeometry x="-470" y="800" width="120" height="30" as="geometry"/>
                </mxCell>
                <mxCell id="96" value="Add Recipe" style="text;strokeColor=none;align=center;fillColor=none;html=1;verticalAlign=middle;whiteSpace=wrap;rounded=0;fontFamily=Helvetica;fontSize=17;rotation=-90;" vertex="1" parent="1">
                    <mxGeometry x="-410" y="370" width="100" height="30" as="geometry"/>
                </mxCell>
                <mxCell id="98" value="View Recipe" style="text;strokeColor=none;align=center;fillColor=none;html=1;verticalAlign=middle;whiteSpace=wrap;rounded=0;fontFamily=Helvetica;fontSize=17;rotation=-90;" vertex="1" parent="1">
                    <mxGeometry x="-480" y="350" width="100" height="30" as="geometry"/>
                </mxCell>
                <mxCell id="101" value="Retrieve Recipe" style="text;strokeColor=none;align=center;fillColor=none;html=1;verticalAlign=middle;whiteSpace=wrap;rounded=0;fontFamily=Helvetica;fontSize=17;" vertex="1" parent="1">
                    <mxGeometry x="-610" y="680" width="140" height="30" as="geometry"/>
                </mxCell>
                <mxCell id="102" value="Store Recipe" style="text;strokeColor=none;align=center;fillColor=none;html=1;verticalAlign=middle;whiteSpace=wrap;rounded=0;fontFamily=Helvetica;fontSize=17;" vertex="1" parent="1">
                    <mxGeometry x="-520" y="740" width="120" height="30" as="geometry"/>
                </mxCell>
                <mxCell id="105" value="Retrieve Recipes" style="text;strokeColor=none;align=center;fillColor=none;html=1;verticalAlign=middle;whiteSpace=wrap;rounded=0;fontFamily=Helvetica;fontSize=17;" vertex="1" parent="1">
                    <mxGeometry x="-880" y="840" width="150" height="30" as="geometry"/>
                </mxCell>
                <mxCell id="107" value="Update Recipes" style="text;strokeColor=none;align=center;fillColor=none;html=1;verticalAlign=middle;whiteSpace=wrap;rounded=0;fontFamily=Helvetica;fontSize=17;" vertex="1" parent="1">
                    <mxGeometry x="-880" y="790" width="150" height="30" as="geometry"/>
                </mxCell>
                <mxCell id="109" value="Delete Recipes" style="text;strokeColor=none;align=center;fillColor=none;html=1;verticalAlign=middle;whiteSpace=wrap;rounded=0;fontFamily=Helvetica;fontSize=17;rotation=-90;" vertex="1" parent="1">
                    <mxGeometry x="-1060" y="310" width="140" height="30" as="geometry"/>
                </mxCell>
                <mxCell id="110" value="Approve / Reject Recipe" style="text;strokeColor=none;align=center;fillColor=none;html=1;verticalAlign=middle;whiteSpace=wrap;rounded=0;fontFamily=Helvetica;fontSize=17;rotation=90;" vertex="1" parent="1">
                    <mxGeometry x="-980" y="330" width="190" height="30" as="geometry"/>
                </mxCell>
                <mxCell id="112" value="Delete User" style="text;strokeColor=none;align=center;fillColor=none;html=1;verticalAlign=middle;whiteSpace=wrap;rounded=0;fontFamily=Helvetica;fontSize=17;rotation=90;" vertex="1" parent="1">
                    <mxGeometry x="-810" y="320" width="110" height="30" as="geometry"/>
                </mxCell>
                <mxCell id="114" value="Fetch Users" style="text;strokeColor=none;align=center;fillColor=none;html=1;verticalAlign=middle;whiteSpace=wrap;rounded=0;fontFamily=Helvetica;fontSize=17;" vertex="1" parent="1">
                    <mxGeometry x="-790" y="670" width="100" height="30" as="geometry"/>
                </mxCell>
                <mxCell id="117" value="Update users" style="text;strokeColor=none;align=center;fillColor=none;html=1;verticalAlign=middle;whiteSpace=wrap;rounded=0;fontFamily=Helvetica;fontSize=13;rotation=90;" vertex="1" parent="1">
                    <mxGeometry x="-777.5" y="580" width="87.5" height="30" as="geometry"/>
                </mxCell>
            </root>
        </mxGraphModel>
    </diagram>
</mxfile>